<mxfile host="drawio-plugin" modified="2024-11-01T22:19:11.610Z" agent="Mozilla/5.0 (Windows NT 10.0; Win64; x64) AppleWebKit/537.36 (KHTML, like Gecko) Chrome/122.0.0.0 Safari/537.36" etag="dLbRM5LltiPPuEf-J1Qz" version="22.1.22" type="embed" pages="4">
  <diagram id="23iRSUPoRavnBvh4doch" name="Page-1">
    <mxGraphModel dx="968" dy="536" grid="1" gridSize="10" guides="1" tooltips="1" connect="1" arrows="1" fold="1" page="1" pageScale="1" pageWidth="827" pageHeight="1169" math="0" shadow="0">
      <root>
        <mxCell id="0" />
        <mxCell id="1" parent="0" />
        <mxCell id="2" value="" style="group" vertex="1" connectable="0" parent="1">
          <mxGeometry x="160" y="30" width="787" height="787" as="geometry" />
        </mxCell>
        <mxCell id="3" value="" style="group" vertex="1" connectable="0" parent="2">
          <mxGeometry width="787" height="787" as="geometry" />
        </mxCell>
        <mxCell id="4" value="" style="whiteSpace=wrap;html=1;aspect=fixed;fillColor=#d5e8d4;strokeColor=#82b366;" vertex="1" parent="3">
          <mxGeometry width="787" height="787" as="geometry" />
        </mxCell>
        <mxCell id="5" value="" style="rounded=0;whiteSpace=wrap;html=1;" vertex="1" parent="3">
          <mxGeometry x="38" y="116" width="727" height="520" as="geometry" />
        </mxCell>
        <mxCell id="6" value="" style="group" vertex="1" connectable="0" parent="3">
          <mxGeometry x="317" y="120" width="124" height="93" as="geometry" />
        </mxCell>
        <mxCell id="7" value="" style="sketch=0;html=1;aspect=fixed;strokeColor=none;shadow=0;align=center;verticalAlign=top;fillColor=#3B8DF1;shape=mxgraph.gcp2.systems_check;rounded=0;fontColor=#3399FF;" vertex="1" parent="6">
          <mxGeometry x="26.840000000000003" y="26" width="66.33" height="67" as="geometry" />
        </mxCell>
        <mxCell id="8" value="UserDetailsService" style="text;html=1;align=center;verticalAlign=middle;resizable=0;points=[];autosize=1;strokeColor=none;fillColor=none;fontColor=#3399FF;fontStyle=1" vertex="1" parent="6">
          <mxGeometry x="-3" width="127" height="26" as="geometry" />
        </mxCell>
        <mxCell id="9" value="" style="group" vertex="1" connectable="0" parent="3">
          <mxGeometry x="182" y="245" width="120" height="112.04615384615384" as="geometry" />
        </mxCell>
        <mxCell id="10" value="" style="group" vertex="1" connectable="0" parent="9">
          <mxGeometry x="20" width="80" height="82.04615384615384" as="geometry" />
        </mxCell>
        <mxCell id="11" value="" style="group" vertex="1" connectable="0" parent="10">
          <mxGeometry x="23.200000000000003" y="18.870615384615384" width="32" height="45.12538461538462" as="geometry" />
        </mxCell>
        <mxCell id="12" value="" style="verticalLabelPosition=bottom;html=1;verticalAlign=top;align=center;strokeColor=#2D7600;fillColor=#60a917;shape=mxgraph.azure.startup_task;pointerEvents=1;fontSize=14;fontColor=#ffffff;" vertex="1" parent="11">
          <mxGeometry width="31.99999999999999" height="45.12538461538462" as="geometry" />
        </mxCell>
        <mxCell id="13" value="" style="sketch=0;html=1;aspect=fixed;strokeColor=#2D7600;shadow=0;align=center;verticalAlign=top;fillColor=#60a917;shape=mxgraph.gcp2.check;fontSize=14;fontColor=#ffffff;" vertex="1" parent="11">
          <mxGeometry x="3.1971197119711996" y="5.206775147928994" width="9.89152296481915" height="7.9132183718553195" as="geometry" />
        </mxCell>
        <mxCell id="14" value="" style="sketch=0;html=1;aspect=fixed;strokeColor=#2D7600;shadow=0;align=center;verticalAlign=top;fillColor=#60a917;shape=mxgraph.gcp2.check;fontSize=14;fontColor=#ffffff;" vertex="1" parent="11">
          <mxGeometry x="3.1971197119711996" y="12.149142011834318" width="9.89152296481915" height="7.9132183718553195" as="geometry" />
        </mxCell>
        <mxCell id="15" value="" style="rhombus;whiteSpace=wrap;html=1;fontSize=14;fontColor=default;fillColor=none;" vertex="1" parent="10">
          <mxGeometry width="80" height="82.04615384615384" as="geometry" />
        </mxCell>
        <mxCell id="16" value="Validate JWT" style="text;html=1;align=center;verticalAlign=middle;resizable=0;points=[];autosize=1;strokeColor=none;fillColor=none;fontSize=14;fontColor=#006600;fontStyle=1" vertex="1" parent="9">
          <mxGeometry x="8" y="83.04615384615384" width="104" height="29" as="geometry" />
        </mxCell>
        <mxCell id="17" style="edgeStyle=orthogonalEdgeStyle;rounded=0;sketch=0;orthogonalLoop=1;jettySize=auto;html=1;entryX=0;entryY=0.5;entryDx=0;entryDy=0;strokeColor=default;strokeWidth=2;fontColor=#0079d6;" edge="1" parent="3" source="18" target="25">
          <mxGeometry relative="1" as="geometry" />
        </mxCell>
        <mxCell id="18" value="Security" style="html=1;strokeColor=none;fillColor=#0079D6;labelPosition=center;verticalLabelPosition=middle;verticalAlign=top;align=center;fontSize=12;outlineConnect=0;spacingTop=-6;fontColor=#FFFFFF;sketch=0;shape=mxgraph.sitemap.security;rounded=0;" vertex="1" parent="3">
          <mxGeometry x="332" y="374" width="83" height="63" as="geometry" />
        </mxCell>
        <mxCell id="19" style="edgeStyle=orthogonalEdgeStyle;rounded=0;sketch=0;orthogonalLoop=1;jettySize=auto;html=1;exitX=1;exitY=0.5;exitDx=0;exitDy=0;strokeColor=#6c8ebf;strokeWidth=2;fontColor=default;fillColor=#dae8fc;" edge="1" parent="3" source="15" target="18">
          <mxGeometry relative="1" as="geometry" />
        </mxCell>
        <mxCell id="20" value="" style="group" vertex="1" connectable="0" parent="3">
          <mxGeometry x="30.5" y="388" width="115" height="63.4736842105263" as="geometry" />
        </mxCell>
        <mxCell id="21" value="&lt;font color=&quot;#3399ff&quot;&gt;Check JWT token&lt;/font&gt;" style="text;html=1;align=center;verticalAlign=middle;resizable=0;points=[];autosize=1;strokeColor=none;fillColor=none;fontStyle=1" vertex="1" parent="20">
          <mxGeometry x="-3" y="37.4736842105263" width="118" height="26" as="geometry" />
        </mxCell>
        <mxCell id="22" value="" style="verticalLabelPosition=bottom;html=1;verticalAlign=top;align=center;strokeColor=none;fillColor=#00BEF2;shape=mxgraph.azure.startup_task;pointerEvents=1;" vertex="1" parent="20">
          <mxGeometry x="32.580357142857146" width="39.441964285714285" height="39.473684210526315" as="geometry" />
        </mxCell>
        <mxCell id="23" value="Update the&lt;br&gt;SecurityContextHolder" style="text;html=1;align=center;verticalAlign=middle;resizable=0;points=[];autosize=1;strokeColor=none;fillColor=none;fontColor=#0079d6;fontStyle=1" vertex="1" parent="3">
          <mxGeometry x="303" y="440" width="148" height="41" as="geometry" />
        </mxCell>
        <mxCell id="24" style="edgeStyle=orthogonalEdgeStyle;rounded=0;sketch=0;orthogonalLoop=1;jettySize=auto;html=1;strokeColor=default;strokeWidth=2;fontColor=#0079d6;" edge="1" parent="3" source="25" target="27">
          <mxGeometry relative="1" as="geometry" />
        </mxCell>
        <mxCell id="25" value="" style="aspect=fixed;perimeter=ellipsePerimeter;html=1;align=center;shadow=0;dashed=0;fontColor=#4277BB;labelBackgroundColor=#ffffff;fontSize=12;spacingTop=3;image;image=img/lib/ibm/vpc/Router.svg;rounded=0;sketch=0;" vertex="1" parent="3">
          <mxGeometry x="575" y="375.5" width="60" height="60" as="geometry" />
        </mxCell>
        <mxCell id="26" value="" style="group" vertex="1" connectable="0" parent="3">
          <mxGeometry x="552" y="504" width="90" height="130" as="geometry" />
        </mxCell>
        <mxCell id="27" value="" style="sketch=0;aspect=fixed;pointerEvents=1;shadow=0;dashed=0;html=1;strokeColor=none;labelPosition=center;verticalLabelPosition=bottom;verticalAlign=top;align=center;fillColor=#808080;shape=mxgraph.mscae.enterprise.server_directory;rounded=0;labelBackgroundColor=none;labelBorderColor=none;strokeWidth=2;fontSize=32;fontColor=#3399FF;" vertex="1" parent="26">
          <mxGeometry x="18" width="72" height="100" as="geometry" />
        </mxCell>
        <mxCell id="28" value="Controller" style="text;html=1;align=center;verticalAlign=middle;resizable=0;points=[];autosize=1;strokeColor=none;fillColor=none;fontSize=14;fontColor=default;fontStyle=1" vertex="1" parent="26">
          <mxGeometry y="100" width="90" height="30" as="geometry" />
        </mxCell>
        <mxCell id="29" value="" style="sketch=0;html=1;aspect=fixed;strokeColor=#82b366;shadow=0;align=center;verticalAlign=top;fillColor=#d5e8d4;shape=mxgraph.gcp2.systems_check;rounded=0;fontColor=#2c8b18;" vertex="1" parent="3">
          <mxGeometry x="328.0032258064516" y="219.9320430107527" width="41.72370967741935" height="42.145161290322584" as="geometry" />
        </mxCell>
        <mxCell id="30" value="JwtService" style="text;html=1;align=center;verticalAlign=middle;resizable=0;points=[];autosize=1;strokeColor=#82b366;fillColor=#d5e8d4;fontStyle=1;fontColor=#2c8b18;" vertex="1" parent="3">
          <mxGeometry x="366.00290322580645" y="228" width="81" height="26" as="geometry" />
        </mxCell>
        <mxCell id="31" style="edgeStyle=orthogonalEdgeStyle;rounded=0;sketch=0;orthogonalLoop=1;jettySize=auto;html=1;exitX=1;exitY=0;exitDx=0;exitDy=0;strokeColor=#2D7600;strokeWidth=2;fontColor=#2c8b18;fillColor=#60a917;" edge="1" parent="3" source="15" target="29">
          <mxGeometry relative="1" as="geometry" />
        </mxCell>
        <mxCell id="32" value="DispatcherServlet" style="text;html=1;align=center;verticalAlign=middle;resizable=0;points=[];autosize=1;strokeColor=none;fillColor=none;fontColor=#8ec53f;" vertex="1" parent="3">
          <mxGeometry x="548.5" y="353" width="113" height="26" as="geometry" />
        </mxCell>
        <mxCell id="33" style="edgeStyle=orthogonalEdgeStyle;rounded=0;sketch=0;orthogonalLoop=1;jettySize=auto;html=1;exitX=1;exitY=0.5;exitDx=0;exitDy=0;entryX=0;entryY=0.5;entryDx=0;entryDy=0;strokeColor=default;strokeWidth=2;fontColor=#2c8b18;" edge="1" parent="1" source="34" target="4">
          <mxGeometry relative="1" as="geometry" />
        </mxCell>
        <mxCell id="34" value="" style="shape=image;verticalLabelPosition=bottom;labelBackgroundColor=default;verticalAlign=top;aspect=fixed;imageAspect=0;image=https://seeklogo.com/images/P/postman-logo-F43375A2EB-seeklogo.com.png;" vertex="1" parent="1">
          <mxGeometry x="8" y="398.5" width="48.67" height="50" as="geometry" />
        </mxCell>
        <mxCell id="35" value="" style="shape=image;verticalLabelPosition=bottom;labelBackgroundColor=default;verticalAlign=top;aspect=fixed;imageAspect=0;image=https://4.bp.blogspot.com/-ou-a_Aa1t7A/W6IhNc3Q0gI/AAAAAAAAD6Y/pwh44arKiuM_NBqB1H7Pz4-7QhUxAgZkACLcBGAs/s1600/spring-boot-logo.png;" vertex="1" parent="1">
          <mxGeometry x="688.26" y="672" width="150.48" height="79" as="geometry" />
        </mxCell>
        <mxCell id="36" value="" style="shape=image;verticalLabelPosition=bottom;labelBackgroundColor=default;verticalAlign=top;aspect=fixed;imageAspect=0;image=https://www.turbonomic.com/wp-content/uploads/2022/04/logo_apache-tomcat.png;" vertex="1" parent="1">
          <mxGeometry x="268.26" y="676.25" width="130" height="70.5" as="geometry" />
        </mxCell>
        <mxCell id="37" value="" style="group;" vertex="1" connectable="0" parent="1">
          <mxGeometry x="214" y="366" width="98" height="64" as="geometry" />
        </mxCell>
        <mxCell id="38" value="" style="rounded=0;whiteSpace=wrap;html=1;" vertex="1" parent="37">
          <mxGeometry width="84" height="48" as="geometry" />
        </mxCell>
        <mxCell id="39" value="" style="rounded=0;whiteSpace=wrap;html=1;" vertex="1" parent="37">
          <mxGeometry x="7" y="8" width="84" height="48" as="geometry" />
        </mxCell>
        <mxCell id="40" value="JwtAuthFilter" style="rounded=0;whiteSpace=wrap;html=1;" vertex="1" parent="37">
          <mxGeometry x="14" y="16" width="84" height="48" as="geometry" />
        </mxCell>
        <mxCell id="41" value="" style="endArrow=classic;startArrow=classic;html=1;rounded=0;strokeColor=#000033;strokeWidth=2;fontSize=14;fontColor=default;exitX=1;exitY=0.5;exitDx=0;exitDy=0;" edge="1" parent="1" source="36">
          <mxGeometry width="50" height="50" relative="1" as="geometry">
            <mxPoint x="398.26" y="702" as="sourcePoint" />
            <mxPoint x="673.5" y="712" as="targetPoint" />
          </mxGeometry>
        </mxCell>
        <mxCell id="42" style="edgeStyle=orthogonalEdgeStyle;rounded=0;orthogonalLoop=1;jettySize=auto;html=1;exitX=0.5;exitY=0;exitDx=0;exitDy=0;fontColor=#3399FF;strokeWidth=2;" edge="1" parent="1" source="38">
          <mxGeometry relative="1" as="geometry">
            <mxPoint x="502" y="212" as="targetPoint" />
            <Array as="points">
              <mxPoint x="284" y="366" />
              <mxPoint x="284" y="212" />
            </Array>
          </mxGeometry>
        </mxCell>
        <mxCell id="43" style="edgeStyle=orthogonalEdgeStyle;rounded=0;orthogonalLoop=1;jettySize=auto;html=1;entryX=0.5;entryY=0;entryDx=0;entryDy=0;fontColor=#3399FF;strokeWidth=2;" edge="1" parent="1" source="7">
          <mxGeometry relative="1" as="geometry">
            <mxPoint x="1080" y="280" as="targetPoint" />
          </mxGeometry>
        </mxCell>
        <mxCell id="44" value="" style="group" vertex="1" connectable="0" parent="1">
          <mxGeometry x="1006.98" y="281" width="133.01999999999998" height="209" as="geometry" />
        </mxCell>
        <mxCell id="45" value="" style="aspect=fixed;html=1;points=[];align=center;image;fontSize=12;image=img/lib/azure2/databases/Azure_Database_PostgreSQL_Server.svg;rounded=0;sketch=0;fontColor=#3399FF;" vertex="1" parent="44">
          <mxGeometry x="12.019999999999982" width="90.75" height="121" as="geometry" />
        </mxCell>
        <mxCell id="46" value="" style="shape=image;verticalLabelPosition=bottom;labelBackgroundColor=default;verticalAlign=top;aspect=fixed;imageAspect=0;image=https://developers.redhat.com/sites/default/files/styles/article_feature/public/blog/2014/05/homepage-docker-logo.png?itok=zx0e-vcP;" vertex="1" parent="44">
          <mxGeometry y="99" width="133.02" height="110" as="geometry" />
        </mxCell>
        <mxCell id="47" value="Invalid JWT token" style="text;html=1;align=center;verticalAlign=middle;resizable=0;points=[];autosize=1;strokeColor=none;fillColor=none;fontColor=#e26259;fontStyle=1" vertex="1" parent="1">
          <mxGeometry x="56.8" y="230" width="120" height="26" as="geometry" />
        </mxCell>
        <mxCell id="48" value="Missing JWT" style="text;html=1;align=center;verticalAlign=middle;resizable=0;points=[];autosize=1;strokeColor=none;fillColor=none;fontColor=#e26259;fontStyle=1" vertex="1" parent="1">
          <mxGeometry x="76.6" y="288" width="91" height="26" as="geometry" />
        </mxCell>
        <mxCell id="49" value="User does not exist" style="text;html=1;align=center;verticalAlign=middle;resizable=0;points=[];autosize=1;strokeColor=none;fillColor=none;fontColor=#e26259;fontStyle=1" vertex="1" parent="1">
          <mxGeometry x="76.6" y="311" width="129" height="26" as="geometry" />
        </mxCell>
        <mxCell id="50" value="HTTP 403" style="text;html=1;align=center;verticalAlign=middle;resizable=0;points=[];autosize=1;strokeColor=none;fillColor=none;fontColor=#e26259;rounded=0;sketch=0;fontStyle=1" vertex="1" parent="1">
          <mxGeometry x="1" y="356" width="72" height="26" as="geometry" />
        </mxCell>
        <mxCell id="51" style="edgeStyle=orthogonalEdgeStyle;rounded=0;sketch=0;orthogonalLoop=1;jettySize=auto;html=1;entryX=0.959;entryY=0.695;entryDx=0;entryDy=0;entryPerimeter=0;strokeColor=#0ed60a;strokeWidth=2;fontColor=default;" edge="1" parent="1" source="45" target="7">
          <mxGeometry relative="1" as="geometry">
            <Array as="points">
              <mxPoint x="1064" y="223" />
            </Array>
          </mxGeometry>
        </mxCell>
        <mxCell id="52" style="edgeStyle=orthogonalEdgeStyle;rounded=0;sketch=0;orthogonalLoop=1;jettySize=auto;html=1;entryX=1;entryY=0;entryDx=0;entryDy=0;strokeColor=#0ed60a;strokeWidth=2;fontColor=default;" edge="1" parent="1" source="7" target="38">
          <mxGeometry relative="1" as="geometry">
            <Array as="points">
              <mxPoint x="298" y="225" />
            </Array>
          </mxGeometry>
        </mxCell>
        <mxCell id="53" style="edgeStyle=orthogonalEdgeStyle;rounded=0;sketch=0;orthogonalLoop=1;jettySize=auto;html=1;strokeColor=default;strokeWidth=2;fontColor=default;" edge="1" parent="1" source="40" target="15">
          <mxGeometry relative="1" as="geometry" />
        </mxCell>
        <mxCell id="54" style="edgeStyle=orthogonalEdgeStyle;rounded=0;sketch=0;orthogonalLoop=1;jettySize=auto;html=1;entryX=0.5;entryY=0;entryDx=0;entryDy=0;strokeColor=#d50c0b;strokeWidth=2;fontColor=default;" edge="1" parent="1" source="15" target="34">
          <mxGeometry relative="1" as="geometry">
            <Array as="points">
              <mxPoint x="402" y="259" />
              <mxPoint x="32" y="259" />
            </Array>
          </mxGeometry>
        </mxCell>
        <mxCell id="55" style="edgeStyle=orthogonalEdgeStyle;rounded=0;sketch=0;orthogonalLoop=1;jettySize=auto;html=1;strokeColor=#3c8df1;strokeWidth=2;fontColor=#0079d6;startArrow=none;" edge="1" parent="1" source="56" target="34">
          <mxGeometry relative="1" as="geometry" />
        </mxCell>
        <mxCell id="56" value="" style="dashed=0;outlineConnect=0;html=1;align=center;labelPosition=center;verticalLabelPosition=bottom;verticalAlign=top;shape=mxgraph.weblogos.json_2;rounded=0;sketch=0;fontColor=#0079d6;" vertex="1" parent="1">
          <mxGeometry x="76.60000000000002" y="571.4" width="80.4" height="25.200000000000003" as="geometry" />
        </mxCell>
        <mxCell id="57" value="" style="edgeStyle=orthogonalEdgeStyle;rounded=0;sketch=0;orthogonalLoop=1;jettySize=auto;html=1;strokeColor=#3c8df1;strokeWidth=2;fontColor=#0079d6;endArrow=none;" edge="1" parent="1" source="27" target="56">
          <mxGeometry relative="1" as="geometry">
            <mxPoint x="730" y="584.0322580645161" as="sourcePoint" />
            <mxPoint x="32.322580645161224" y="448.5" as="targetPoint" />
          </mxGeometry>
        </mxCell>
        <mxCell id="58" value="HTTP 200" style="text;html=1;align=center;verticalAlign=middle;resizable=0;points=[];autosize=1;strokeColor=none;fillColor=none;fontColor=#0079d6;fontStyle=1" vertex="1" parent="1">
          <mxGeometry y="464" width="72" height="26" as="geometry" />
        </mxCell>
        <mxCell id="59" style="edgeStyle=orthogonalEdgeStyle;rounded=0;sketch=0;orthogonalLoop=1;jettySize=auto;html=1;exitX=0;exitY=0.5;exitDx=0;exitDy=0;strokeColor=#d40d0b;strokeWidth=2;fontColor=#d40d0b;" edge="1" parent="1" source="38" target="34">
          <mxGeometry relative="1" as="geometry">
            <Array as="points">
              <mxPoint x="214" y="287" />
              <mxPoint x="32" y="287" />
            </Array>
          </mxGeometry>
        </mxCell>
        <mxCell id="60" value="HTTP Requests" style="text;html=1;align=center;verticalAlign=middle;resizable=0;points=[];autosize=1;strokeColor=none;fillColor=none;fontColor=default;fontStyle=1" vertex="1" parent="1">
          <mxGeometry x="45" y="425" width="106" height="26" as="geometry" />
        </mxCell>
      </root>
    </mxGraphModel>
  </diagram>
  <diagram name="new-flow" id="7AomulCaOORx28_HtohI">
    <mxGraphModel dx="2229" dy="1045" grid="0" gridSize="10" guides="1" tooltips="1" connect="1" arrows="1" fold="1" page="1" pageScale="1" pageWidth="1169" pageHeight="827" math="0" shadow="0">
      <root>
        <mxCell id="0" />
        <mxCell id="1" parent="0" />
        <mxCell id="HA8-pInTj3ZK-7nUhY4h-1" value="" style="group;fillColor=default;strokeColor=none;" parent="1" vertex="1" connectable="0">
          <mxGeometry x="60" y="360" width="180" height="90" as="geometry" />
        </mxCell>
        <mxCell id="QRnQFyGs-lFjeeRuztLu-1" value="" style="rounded=0;whiteSpace=wrap;html=1;" parent="HA8-pInTj3ZK-7nUhY4h-1" vertex="1">
          <mxGeometry width="160" height="70" as="geometry" />
        </mxCell>
        <mxCell id="QRnQFyGs-lFjeeRuztLu-2" value="" style="rounded=0;whiteSpace=wrap;html=1;" parent="HA8-pInTj3ZK-7nUhY4h-1" vertex="1">
          <mxGeometry x="10" y="10" width="160" height="70" as="geometry" />
        </mxCell>
        <mxCell id="QRnQFyGs-lFjeeRuztLu-3" value="JwtAuthFilter" style="rounded=0;whiteSpace=wrap;html=1;" parent="HA8-pInTj3ZK-7nUhY4h-1" vertex="1">
          <mxGeometry x="20" y="20" width="160" height="70" as="geometry" />
        </mxCell>
        <mxCell id="OrCYgKApnLObKEuBMM75-9" style="edgeStyle=orthogonalEdgeStyle;rounded=0;orthogonalLoop=1;jettySize=auto;html=1;exitX=1;exitY=0.5;exitDx=0;exitDy=0;" parent="1" source="OrCYgKApnLObKEuBMM75-1" target="OrCYgKApnLObKEuBMM75-5" edge="1">
          <mxGeometry relative="1" as="geometry" />
        </mxCell>
        <mxCell id="OrCYgKApnLObKEuBMM75-1" value="JwtService" style="rounded=0;whiteSpace=wrap;html=1;fillColor=#dae8fc;strokeColor=#6c8ebf;" parent="1" vertex="1">
          <mxGeometry x="400" y="330" width="120" height="60" as="geometry" />
        </mxCell>
        <mxCell id="OrCYgKApnLObKEuBMM75-6" style="edgeStyle=orthogonalEdgeStyle;rounded=0;orthogonalLoop=1;jettySize=auto;html=1;entryX=0;entryY=0.5;entryDx=0;entryDy=0;" parent="1" source="OrCYgKApnLObKEuBMM75-2" target="OrCYgKApnLObKEuBMM75-5" edge="1">
          <mxGeometry relative="1" as="geometry" />
        </mxCell>
        <mxCell id="OrCYgKApnLObKEuBMM75-2" value="TokenRepository" style="rounded=0;whiteSpace=wrap;html=1;fillColor=#d5e8d4;strokeColor=#82b366;" parent="1" vertex="1">
          <mxGeometry x="400" y="430" width="120" height="60" as="geometry" />
        </mxCell>
        <mxCell id="OrCYgKApnLObKEuBMM75-3" style="edgeStyle=orthogonalEdgeStyle;rounded=0;orthogonalLoop=1;jettySize=auto;html=1;entryX=0;entryY=0.5;entryDx=0;entryDy=0;curved=1;" parent="1" source="QRnQFyGs-lFjeeRuztLu-3" target="OrCYgKApnLObKEuBMM75-1" edge="1">
          <mxGeometry relative="1" as="geometry" />
        </mxCell>
        <mxCell id="OrCYgKApnLObKEuBMM75-4" style="edgeStyle=orthogonalEdgeStyle;rounded=0;orthogonalLoop=1;jettySize=auto;html=1;exitX=1;exitY=0.5;exitDx=0;exitDy=0;entryX=0;entryY=0.5;entryDx=0;entryDy=0;curved=1;" parent="1" source="QRnQFyGs-lFjeeRuztLu-3" target="OrCYgKApnLObKEuBMM75-2" edge="1">
          <mxGeometry relative="1" as="geometry" />
        </mxCell>
        <mxCell id="EAdGHvd8W2WM0f3SbvN2-2" style="edgeStyle=orthogonalEdgeStyle;rounded=0;orthogonalLoop=1;jettySize=auto;html=1;strokeWidth=2;fillColor=#d5e8d4;strokeColor=#82b366;" parent="1" source="OrCYgKApnLObKEuBMM75-5" edge="1">
          <mxGeometry relative="1" as="geometry">
            <mxPoint x="920" y="405" as="targetPoint" />
          </mxGeometry>
        </mxCell>
        <mxCell id="EAdGHvd8W2WM0f3SbvN2-6" value="Valid token" style="edgeLabel;html=1;align=center;verticalAlign=middle;resizable=0;points=[];" parent="EAdGHvd8W2WM0f3SbvN2-2" vertex="1" connectable="0">
          <mxGeometry x="-0.319" y="1" relative="1" as="geometry">
            <mxPoint x="13" as="offset" />
          </mxGeometry>
        </mxCell>
        <mxCell id="EAdGHvd8W2WM0f3SbvN2-4" style="edgeStyle=orthogonalEdgeStyle;rounded=0;orthogonalLoop=1;jettySize=auto;html=1;strokeWidth=2;fillColor=#f8cecc;strokeColor=#b85450;" parent="1" source="OrCYgKApnLObKEuBMM75-5" edge="1">
          <mxGeometry relative="1" as="geometry">
            <mxPoint x="740" y="200" as="targetPoint" />
          </mxGeometry>
        </mxCell>
        <mxCell id="EAdGHvd8W2WM0f3SbvN2-5" value="Invalid token" style="edgeLabel;html=1;align=center;verticalAlign=middle;resizable=0;points=[];" parent="EAdGHvd8W2WM0f3SbvN2-4" vertex="1" connectable="0">
          <mxGeometry x="-0.1919" y="-1" relative="1" as="geometry">
            <mxPoint as="offset" />
          </mxGeometry>
        </mxCell>
        <mxCell id="OrCYgKApnLObKEuBMM75-5" value="Calculate" style="rhombus;whiteSpace=wrap;html=1;" parent="1" vertex="1">
          <mxGeometry x="700" y="365" width="80" height="80" as="geometry" />
        </mxCell>
      </root>
    </mxGraphModel>
  </diagram>
  <diagram name="class-diagram" id="Q5sSJqEl65pLInXuQXy7">
    <mxGraphModel dx="2229" dy="1045" grid="0" gridSize="10" guides="1" tooltips="1" connect="1" arrows="1" fold="1" page="1" pageScale="1" pageWidth="1169" pageHeight="827" math="0" shadow="0">
      <root>
        <mxCell id="0" />
        <mxCell id="1" parent="0" />
        <mxCell id="XC6CGuYQlSzaP45YXhiZ-1" value="User" style="shape=table;startSize=30;container=1;collapsible=1;childLayout=tableLayout;fixedRows=1;rowLines=0;fontStyle=1;align=center;resizeLast=1;fillColor=default;" parent="1" vertex="1">
          <mxGeometry x="344" y="259" width="180" height="210" as="geometry" />
        </mxCell>
        <mxCell id="XC6CGuYQlSzaP45YXhiZ-2" value="" style="shape=tableRow;horizontal=0;startSize=0;swimlaneHead=0;swimlaneBody=0;fillColor=none;collapsible=0;dropTarget=0;points=[[0,0.5],[1,0.5]];portConstraint=eastwest;top=0;left=0;right=0;bottom=1;" parent="XC6CGuYQlSzaP45YXhiZ-1" vertex="1">
          <mxGeometry y="30" width="180" height="30" as="geometry" />
        </mxCell>
        <mxCell id="XC6CGuYQlSzaP45YXhiZ-3" value="PK" style="shape=partialRectangle;connectable=0;fillColor=none;top=0;left=0;bottom=0;right=0;fontStyle=1;overflow=hidden;" parent="XC6CGuYQlSzaP45YXhiZ-2" vertex="1">
          <mxGeometry width="60" height="30" as="geometry">
            <mxRectangle width="60" height="30" as="alternateBounds" />
          </mxGeometry>
        </mxCell>
        <mxCell id="XC6CGuYQlSzaP45YXhiZ-4" value="id" style="shape=partialRectangle;connectable=0;fillColor=none;top=0;left=0;bottom=0;right=0;align=left;spacingLeft=6;fontStyle=5;overflow=hidden;" parent="XC6CGuYQlSzaP45YXhiZ-2" vertex="1">
          <mxGeometry x="60" width="120" height="30" as="geometry">
            <mxRectangle width="120" height="30" as="alternateBounds" />
          </mxGeometry>
        </mxCell>
        <mxCell id="XC6CGuYQlSzaP45YXhiZ-5" value="" style="shape=tableRow;horizontal=0;startSize=0;swimlaneHead=0;swimlaneBody=0;fillColor=none;collapsible=0;dropTarget=0;points=[[0,0.5],[1,0.5]];portConstraint=eastwest;top=0;left=0;right=0;bottom=0;" parent="XC6CGuYQlSzaP45YXhiZ-1" vertex="1">
          <mxGeometry y="60" width="180" height="30" as="geometry" />
        </mxCell>
        <mxCell id="XC6CGuYQlSzaP45YXhiZ-6" value="String" style="shape=partialRectangle;connectable=0;fillColor=none;top=0;left=0;bottom=0;right=0;editable=1;overflow=hidden;" parent="XC6CGuYQlSzaP45YXhiZ-5" vertex="1">
          <mxGeometry width="60" height="30" as="geometry">
            <mxRectangle width="60" height="30" as="alternateBounds" />
          </mxGeometry>
        </mxCell>
        <mxCell id="XC6CGuYQlSzaP45YXhiZ-7" value="firstName" style="shape=partialRectangle;connectable=0;fillColor=none;top=0;left=0;bottom=0;right=0;align=left;spacingLeft=6;overflow=hidden;" parent="XC6CGuYQlSzaP45YXhiZ-5" vertex="1">
          <mxGeometry x="60" width="120" height="30" as="geometry">
            <mxRectangle width="120" height="30" as="alternateBounds" />
          </mxGeometry>
        </mxCell>
        <mxCell id="XC6CGuYQlSzaP45YXhiZ-8" value="" style="shape=tableRow;horizontal=0;startSize=0;swimlaneHead=0;swimlaneBody=0;fillColor=none;collapsible=0;dropTarget=0;points=[[0,0.5],[1,0.5]];portConstraint=eastwest;top=0;left=0;right=0;bottom=0;" parent="XC6CGuYQlSzaP45YXhiZ-1" vertex="1">
          <mxGeometry y="90" width="180" height="30" as="geometry" />
        </mxCell>
        <mxCell id="XC6CGuYQlSzaP45YXhiZ-9" value="String" style="shape=partialRectangle;connectable=0;fillColor=none;top=0;left=0;bottom=0;right=0;editable=1;overflow=hidden;" parent="XC6CGuYQlSzaP45YXhiZ-8" vertex="1">
          <mxGeometry width="60" height="30" as="geometry">
            <mxRectangle width="60" height="30" as="alternateBounds" />
          </mxGeometry>
        </mxCell>
        <mxCell id="XC6CGuYQlSzaP45YXhiZ-10" value="lastName" style="shape=partialRectangle;connectable=0;fillColor=none;top=0;left=0;bottom=0;right=0;align=left;spacingLeft=6;overflow=hidden;" parent="XC6CGuYQlSzaP45YXhiZ-8" vertex="1">
          <mxGeometry x="60" width="120" height="30" as="geometry">
            <mxRectangle width="120" height="30" as="alternateBounds" />
          </mxGeometry>
        </mxCell>
        <mxCell id="XC6CGuYQlSzaP45YXhiZ-11" value="" style="shape=tableRow;horizontal=0;startSize=0;swimlaneHead=0;swimlaneBody=0;fillColor=none;collapsible=0;dropTarget=0;points=[[0,0.5],[1,0.5]];portConstraint=eastwest;top=0;left=0;right=0;bottom=0;" parent="XC6CGuYQlSzaP45YXhiZ-1" vertex="1">
          <mxGeometry y="120" width="180" height="30" as="geometry" />
        </mxCell>
        <mxCell id="XC6CGuYQlSzaP45YXhiZ-12" value="String" style="shape=partialRectangle;connectable=0;fillColor=none;top=0;left=0;bottom=0;right=0;editable=1;overflow=hidden;" parent="XC6CGuYQlSzaP45YXhiZ-11" vertex="1">
          <mxGeometry width="60" height="30" as="geometry">
            <mxRectangle width="60" height="30" as="alternateBounds" />
          </mxGeometry>
        </mxCell>
        <mxCell id="XC6CGuYQlSzaP45YXhiZ-13" value="email" style="shape=partialRectangle;connectable=0;fillColor=none;top=0;left=0;bottom=0;right=0;align=left;spacingLeft=6;overflow=hidden;" parent="XC6CGuYQlSzaP45YXhiZ-11" vertex="1">
          <mxGeometry x="60" width="120" height="30" as="geometry">
            <mxRectangle width="120" height="30" as="alternateBounds" />
          </mxGeometry>
        </mxCell>
        <mxCell id="XC6CGuYQlSzaP45YXhiZ-32" value="" style="shape=tableRow;horizontal=0;startSize=0;swimlaneHead=0;swimlaneBody=0;fillColor=none;collapsible=0;dropTarget=0;points=[[0,0.5],[1,0.5]];portConstraint=eastwest;top=0;left=0;right=0;bottom=0;" parent="XC6CGuYQlSzaP45YXhiZ-1" vertex="1">
          <mxGeometry y="150" width="180" height="30" as="geometry" />
        </mxCell>
        <mxCell id="XC6CGuYQlSzaP45YXhiZ-33" value="String" style="shape=partialRectangle;connectable=0;fillColor=none;top=0;left=0;bottom=0;right=0;editable=1;overflow=hidden;" parent="XC6CGuYQlSzaP45YXhiZ-32" vertex="1">
          <mxGeometry width="60" height="30" as="geometry">
            <mxRectangle width="60" height="30" as="alternateBounds" />
          </mxGeometry>
        </mxCell>
        <mxCell id="XC6CGuYQlSzaP45YXhiZ-34" value="password" style="shape=partialRectangle;connectable=0;fillColor=none;top=0;left=0;bottom=0;right=0;align=left;spacingLeft=6;overflow=hidden;" parent="XC6CGuYQlSzaP45YXhiZ-32" vertex="1">
          <mxGeometry x="60" width="120" height="30" as="geometry">
            <mxRectangle width="120" height="30" as="alternateBounds" />
          </mxGeometry>
        </mxCell>
        <mxCell id="XC6CGuYQlSzaP45YXhiZ-35" value="" style="shape=tableRow;horizontal=0;startSize=0;swimlaneHead=0;swimlaneBody=0;fillColor=none;collapsible=0;dropTarget=0;points=[[0,0.5],[1,0.5]];portConstraint=eastwest;top=0;left=0;right=0;bottom=0;" parent="XC6CGuYQlSzaP45YXhiZ-1" vertex="1">
          <mxGeometry y="180" width="180" height="30" as="geometry" />
        </mxCell>
        <mxCell id="XC6CGuYQlSzaP45YXhiZ-36" value="String" style="shape=partialRectangle;connectable=0;fillColor=none;top=0;left=0;bottom=0;right=0;editable=1;overflow=hidden;" parent="XC6CGuYQlSzaP45YXhiZ-35" vertex="1">
          <mxGeometry width="60" height="30" as="geometry">
            <mxRectangle width="60" height="30" as="alternateBounds" />
          </mxGeometry>
        </mxCell>
        <mxCell id="XC6CGuYQlSzaP45YXhiZ-37" value="role" style="shape=partialRectangle;connectable=0;fillColor=none;top=0;left=0;bottom=0;right=0;align=left;spacingLeft=6;overflow=hidden;" parent="XC6CGuYQlSzaP45YXhiZ-35" vertex="1">
          <mxGeometry x="60" width="120" height="30" as="geometry">
            <mxRectangle width="120" height="30" as="alternateBounds" />
          </mxGeometry>
        </mxCell>
        <mxCell id="XC6CGuYQlSzaP45YXhiZ-14" value="Token" style="shape=table;startSize=30;container=1;collapsible=1;childLayout=tableLayout;fixedRows=1;rowLines=0;fontStyle=1;align=center;resizeLast=1;fillColor=default;" parent="1" vertex="1">
          <mxGeometry x="645" y="389" width="180" height="180" as="geometry" />
        </mxCell>
        <mxCell id="XC6CGuYQlSzaP45YXhiZ-15" value="" style="shape=tableRow;horizontal=0;startSize=0;swimlaneHead=0;swimlaneBody=0;fillColor=none;collapsible=0;dropTarget=0;points=[[0,0.5],[1,0.5]];portConstraint=eastwest;top=0;left=0;right=0;bottom=1;" parent="XC6CGuYQlSzaP45YXhiZ-14" vertex="1">
          <mxGeometry y="30" width="180" height="30" as="geometry" />
        </mxCell>
        <mxCell id="XC6CGuYQlSzaP45YXhiZ-16" value="PK" style="shape=partialRectangle;connectable=0;fillColor=none;top=0;left=0;bottom=0;right=0;fontStyle=1;overflow=hidden;" parent="XC6CGuYQlSzaP45YXhiZ-15" vertex="1">
          <mxGeometry width="49" height="30" as="geometry">
            <mxRectangle width="49" height="30" as="alternateBounds" />
          </mxGeometry>
        </mxCell>
        <mxCell id="XC6CGuYQlSzaP45YXhiZ-17" value="id" style="shape=partialRectangle;connectable=0;fillColor=none;top=0;left=0;bottom=0;right=0;align=left;spacingLeft=6;fontStyle=5;overflow=hidden;" parent="XC6CGuYQlSzaP45YXhiZ-15" vertex="1">
          <mxGeometry x="49" width="131" height="30" as="geometry">
            <mxRectangle width="131" height="30" as="alternateBounds" />
          </mxGeometry>
        </mxCell>
        <mxCell id="XC6CGuYQlSzaP45YXhiZ-18" value="" style="shape=tableRow;horizontal=0;startSize=0;swimlaneHead=0;swimlaneBody=0;fillColor=none;collapsible=0;dropTarget=0;points=[[0,0.5],[1,0.5]];portConstraint=eastwest;top=0;left=0;right=0;bottom=0;" parent="XC6CGuYQlSzaP45YXhiZ-14" vertex="1">
          <mxGeometry y="60" width="180" height="30" as="geometry" />
        </mxCell>
        <mxCell id="XC6CGuYQlSzaP45YXhiZ-19" value="String" style="shape=partialRectangle;connectable=0;fillColor=none;top=0;left=0;bottom=0;right=0;editable=1;overflow=hidden;" parent="XC6CGuYQlSzaP45YXhiZ-18" vertex="1">
          <mxGeometry width="49" height="30" as="geometry">
            <mxRectangle width="49" height="30" as="alternateBounds" />
          </mxGeometry>
        </mxCell>
        <mxCell id="XC6CGuYQlSzaP45YXhiZ-20" value="token" style="shape=partialRectangle;connectable=0;fillColor=none;top=0;left=0;bottom=0;right=0;align=left;spacingLeft=6;overflow=hidden;" parent="XC6CGuYQlSzaP45YXhiZ-18" vertex="1">
          <mxGeometry x="49" width="131" height="30" as="geometry">
            <mxRectangle width="131" height="30" as="alternateBounds" />
          </mxGeometry>
        </mxCell>
        <mxCell id="XC6CGuYQlSzaP45YXhiZ-21" value="" style="shape=tableRow;horizontal=0;startSize=0;swimlaneHead=0;swimlaneBody=0;fillColor=none;collapsible=0;dropTarget=0;points=[[0,0.5],[1,0.5]];portConstraint=eastwest;top=0;left=0;right=0;bottom=0;" parent="XC6CGuYQlSzaP45YXhiZ-14" vertex="1">
          <mxGeometry y="90" width="180" height="30" as="geometry" />
        </mxCell>
        <mxCell id="XC6CGuYQlSzaP45YXhiZ-22" value="String" style="shape=partialRectangle;connectable=0;fillColor=none;top=0;left=0;bottom=0;right=0;editable=1;overflow=hidden;" parent="XC6CGuYQlSzaP45YXhiZ-21" vertex="1">
          <mxGeometry width="49" height="30" as="geometry">
            <mxRectangle width="49" height="30" as="alternateBounds" />
          </mxGeometry>
        </mxCell>
        <mxCell id="XC6CGuYQlSzaP45YXhiZ-23" value="tokenType" style="shape=partialRectangle;connectable=0;fillColor=none;top=0;left=0;bottom=0;right=0;align=left;spacingLeft=6;overflow=hidden;" parent="XC6CGuYQlSzaP45YXhiZ-21" vertex="1">
          <mxGeometry x="49" width="131" height="30" as="geometry">
            <mxRectangle width="131" height="30" as="alternateBounds" />
          </mxGeometry>
        </mxCell>
        <mxCell id="XC6CGuYQlSzaP45YXhiZ-28" value="" style="shape=tableRow;horizontal=0;startSize=0;swimlaneHead=0;swimlaneBody=0;fillColor=none;collapsible=0;dropTarget=0;points=[[0,0.5],[1,0.5]];portConstraint=eastwest;top=0;left=0;right=0;bottom=0;" parent="XC6CGuYQlSzaP45YXhiZ-14" vertex="1">
          <mxGeometry y="120" width="180" height="30" as="geometry" />
        </mxCell>
        <mxCell id="XC6CGuYQlSzaP45YXhiZ-29" value="boolean" style="shape=partialRectangle;connectable=0;fillColor=none;top=0;left=0;bottom=0;right=0;editable=1;overflow=hidden;" parent="XC6CGuYQlSzaP45YXhiZ-28" vertex="1">
          <mxGeometry width="49" height="30" as="geometry">
            <mxRectangle width="49" height="30" as="alternateBounds" />
          </mxGeometry>
        </mxCell>
        <mxCell id="XC6CGuYQlSzaP45YXhiZ-30" value="expired" style="shape=partialRectangle;connectable=0;fillColor=none;top=0;left=0;bottom=0;right=0;align=left;spacingLeft=6;overflow=hidden;" parent="XC6CGuYQlSzaP45YXhiZ-28" vertex="1">
          <mxGeometry x="49" width="131" height="30" as="geometry">
            <mxRectangle width="131" height="30" as="alternateBounds" />
          </mxGeometry>
        </mxCell>
        <mxCell id="XC6CGuYQlSzaP45YXhiZ-24" value="" style="shape=tableRow;horizontal=0;startSize=0;swimlaneHead=0;swimlaneBody=0;fillColor=none;collapsible=0;dropTarget=0;points=[[0,0.5],[1,0.5]];portConstraint=eastwest;top=0;left=0;right=0;bottom=0;" parent="XC6CGuYQlSzaP45YXhiZ-14" vertex="1">
          <mxGeometry y="150" width="180" height="30" as="geometry" />
        </mxCell>
        <mxCell id="XC6CGuYQlSzaP45YXhiZ-25" value="boolean" style="shape=partialRectangle;connectable=0;fillColor=none;top=0;left=0;bottom=0;right=0;editable=1;overflow=hidden;" parent="XC6CGuYQlSzaP45YXhiZ-24" vertex="1">
          <mxGeometry width="49" height="30" as="geometry">
            <mxRectangle width="49" height="30" as="alternateBounds" />
          </mxGeometry>
        </mxCell>
        <mxCell id="XC6CGuYQlSzaP45YXhiZ-26" value="revoked" style="shape=partialRectangle;connectable=0;fillColor=none;top=0;left=0;bottom=0;right=0;align=left;spacingLeft=6;overflow=hidden;" parent="XC6CGuYQlSzaP45YXhiZ-24" vertex="1">
          <mxGeometry x="49" width="131" height="30" as="geometry">
            <mxRectangle width="131" height="30" as="alternateBounds" />
          </mxGeometry>
        </mxCell>
        <mxCell id="XC6CGuYQlSzaP45YXhiZ-31" value="" style="edgeStyle=entityRelationEdgeStyle;fontSize=12;html=1;endArrow=ERoneToMany;rounded=0;strokeWidth=1;" parent="1" edge="1">
          <mxGeometry width="100" height="100" relative="1" as="geometry">
            <mxPoint x="524" y="343" as="sourcePoint" />
            <mxPoint x="644" y="479" as="targetPoint" />
          </mxGeometry>
        </mxCell>
      </root>
    </mxGraphModel>
  </diagram>
  <diagram name="roles and permissions" id="8wiiWshVtGact64CrU3C">
    <mxGraphModel dx="903" dy="446" grid="0" gridSize="10" guides="1" tooltips="1" connect="0" arrows="0" fold="1" page="1" pageScale="1" pageWidth="1100" pageHeight="850" math="0" shadow="0">
      <root>
        <mxCell id="0" />
        <mxCell id="1" parent="0" />
        <mxCell id="Fkp4l_HLPrJYwHj4Cqq2-17" value="Roles and Permissions" style="rounded=0;whiteSpace=wrap;html=1;verticalAlign=top;fontSize=23;fontStyle=1" vertex="1" parent="1">
          <mxGeometry x="233" y="213" width="688" height="417" as="geometry" />
        </mxCell>
        <mxCell id="Fkp4l_HLPrJYwHj4Cqq2-18" style="edgeStyle=orthogonalEdgeStyle;rounded=0;orthogonalLoop=1;jettySize=auto;html=1;entryX=0;entryY=0.5;entryDx=0;entryDy=0;curved=1;" edge="1" parent="1" source="LGTntW4OqFH9rOVflEHm-1" target="LGTntW4OqFH9rOVflEHm-2">
          <mxGeometry relative="1" as="geometry" />
        </mxCell>
        <mxCell id="Fkp4l_HLPrJYwHj4Cqq2-19" style="edgeStyle=orthogonalEdgeStyle;rounded=0;orthogonalLoop=1;jettySize=auto;html=1;entryX=0;entryY=0.5;entryDx=0;entryDy=0;curved=1;" edge="1" parent="1" source="LGTntW4OqFH9rOVflEHm-1" target="Fkp4l_HLPrJYwHj4Cqq2-12">
          <mxGeometry relative="1" as="geometry" />
        </mxCell>
        <mxCell id="LGTntW4OqFH9rOVflEHm-1" value="User" style="shape=umlActor;verticalLabelPosition=bottom;verticalAlign=top;html=1;outlineConnect=0;" parent="1" vertex="1">
          <mxGeometry x="332" y="396" width="30" height="60" as="geometry" />
        </mxCell>
        <mxCell id="Fkp4l_HLPrJYwHj4Cqq2-4" style="edgeStyle=orthogonalEdgeStyle;rounded=0;orthogonalLoop=1;jettySize=auto;html=1;exitX=1;exitY=0.5;exitDx=0;exitDy=0;entryX=0;entryY=0.5;entryDx=0;entryDy=0;" edge="1" parent="1" source="LGTntW4OqFH9rOVflEHm-2" target="LGTntW4OqFH9rOVflEHm-3">
          <mxGeometry relative="1" as="geometry" />
        </mxCell>
        <mxCell id="Fkp4l_HLPrJYwHj4Cqq2-5" style="edgeStyle=orthogonalEdgeStyle;rounded=0;orthogonalLoop=1;jettySize=auto;html=1;exitX=1;exitY=0.5;exitDx=0;exitDy=0;entryX=0;entryY=0.5;entryDx=0;entryDy=0;" edge="1" parent="1" source="LGTntW4OqFH9rOVflEHm-2" target="Fkp4l_HLPrJYwHj4Cqq2-1">
          <mxGeometry relative="1" as="geometry" />
        </mxCell>
        <mxCell id="Fkp4l_HLPrJYwHj4Cqq2-6" style="edgeStyle=orthogonalEdgeStyle;rounded=0;orthogonalLoop=1;jettySize=auto;html=1;exitX=1;exitY=0.5;exitDx=0;exitDy=0;entryX=0;entryY=0.5;entryDx=0;entryDy=0;" edge="1" parent="1" source="LGTntW4OqFH9rOVflEHm-2" target="Fkp4l_HLPrJYwHj4Cqq2-2">
          <mxGeometry relative="1" as="geometry" />
        </mxCell>
        <mxCell id="Fkp4l_HLPrJYwHj4Cqq2-7" style="edgeStyle=orthogonalEdgeStyle;rounded=0;orthogonalLoop=1;jettySize=auto;html=1;exitX=1;exitY=0.5;exitDx=0;exitDy=0;entryX=0;entryY=0.5;entryDx=0;entryDy=0;" edge="1" parent="1" source="LGTntW4OqFH9rOVflEHm-2" target="Fkp4l_HLPrJYwHj4Cqq2-3">
          <mxGeometry relative="1" as="geometry" />
        </mxCell>
        <mxCell id="LGTntW4OqFH9rOVflEHm-2" value="ROLE_A" style="rounded=0;whiteSpace=wrap;html=1;" parent="1" vertex="1">
          <mxGeometry x="467" y="329" width="110" height="36" as="geometry" />
        </mxCell>
        <mxCell id="LGTntW4OqFH9rOVflEHm-3" value="RESOURCE:READ" style="rounded=1;whiteSpace=wrap;html=1;fillColor=#d5e8d4;strokeColor=#82b366;" parent="1" vertex="1">
          <mxGeometry x="640" y="272" width="128" height="27" as="geometry" />
        </mxCell>
        <mxCell id="Fkp4l_HLPrJYwHj4Cqq2-1" value="RESOURCE:WRITE" style="rounded=1;whiteSpace=wrap;html=1;fillColor=#fff2cc;strokeColor=#d6b656;" vertex="1" parent="1">
          <mxGeometry x="640" y="312" width="128" height="27" as="geometry" />
        </mxCell>
        <mxCell id="Fkp4l_HLPrJYwHj4Cqq2-2" value="RESOURCE:DELETE" style="rounded=1;whiteSpace=wrap;html=1;fillColor=#f8cecc;strokeColor=#b85450;" vertex="1" parent="1">
          <mxGeometry x="640" y="352" width="128" height="27" as="geometry" />
        </mxCell>
        <mxCell id="Fkp4l_HLPrJYwHj4Cqq2-3" value="RESOURCE:UPDATE" style="rounded=1;whiteSpace=wrap;html=1;fillColor=#dae8fc;strokeColor=#6c8ebf;" vertex="1" parent="1">
          <mxGeometry x="640" y="392" width="128" height="27" as="geometry" />
        </mxCell>
        <mxCell id="Fkp4l_HLPrJYwHj4Cqq2-8" style="edgeStyle=orthogonalEdgeStyle;rounded=0;orthogonalLoop=1;jettySize=auto;html=1;exitX=1;exitY=0.5;exitDx=0;exitDy=0;entryX=0;entryY=0.5;entryDx=0;entryDy=0;" edge="1" parent="1" source="Fkp4l_HLPrJYwHj4Cqq2-12" target="Fkp4l_HLPrJYwHj4Cqq2-13">
          <mxGeometry relative="1" as="geometry" />
        </mxCell>
        <mxCell id="Fkp4l_HLPrJYwHj4Cqq2-9" style="edgeStyle=orthogonalEdgeStyle;rounded=0;orthogonalLoop=1;jettySize=auto;html=1;exitX=1;exitY=0.5;exitDx=0;exitDy=0;entryX=0;entryY=0.5;entryDx=0;entryDy=0;" edge="1" parent="1" source="Fkp4l_HLPrJYwHj4Cqq2-12" target="Fkp4l_HLPrJYwHj4Cqq2-14">
          <mxGeometry relative="1" as="geometry" />
        </mxCell>
        <mxCell id="Fkp4l_HLPrJYwHj4Cqq2-10" style="edgeStyle=orthogonalEdgeStyle;rounded=0;orthogonalLoop=1;jettySize=auto;html=1;exitX=1;exitY=0.5;exitDx=0;exitDy=0;entryX=0;entryY=0.5;entryDx=0;entryDy=0;" edge="1" parent="1" source="Fkp4l_HLPrJYwHj4Cqq2-12" target="Fkp4l_HLPrJYwHj4Cqq2-15">
          <mxGeometry relative="1" as="geometry" />
        </mxCell>
        <mxCell id="Fkp4l_HLPrJYwHj4Cqq2-11" style="edgeStyle=orthogonalEdgeStyle;rounded=0;orthogonalLoop=1;jettySize=auto;html=1;exitX=1;exitY=0.5;exitDx=0;exitDy=0;entryX=0;entryY=0.5;entryDx=0;entryDy=0;" edge="1" parent="1" source="Fkp4l_HLPrJYwHj4Cqq2-12" target="Fkp4l_HLPrJYwHj4Cqq2-16">
          <mxGeometry relative="1" as="geometry" />
        </mxCell>
        <mxCell id="Fkp4l_HLPrJYwHj4Cqq2-12" value="ROLE_B" style="rounded=0;whiteSpace=wrap;html=1;" vertex="1" parent="1">
          <mxGeometry x="467" y="489" width="110" height="36" as="geometry" />
        </mxCell>
        <mxCell id="Fkp4l_HLPrJYwHj4Cqq2-13" value="RESOURCE:READ" style="rounded=1;whiteSpace=wrap;html=1;fillColor=#d5e8d4;strokeColor=#82b366;" vertex="1" parent="1">
          <mxGeometry x="640" y="432" width="128" height="27" as="geometry" />
        </mxCell>
        <mxCell id="Fkp4l_HLPrJYwHj4Cqq2-14" value="RESOURCE:WRITE" style="rounded=1;whiteSpace=wrap;html=1;fillColor=#fff2cc;strokeColor=#d6b656;" vertex="1" parent="1">
          <mxGeometry x="640" y="472" width="128" height="27" as="geometry" />
        </mxCell>
        <mxCell id="Fkp4l_HLPrJYwHj4Cqq2-15" value="RESOURCE:DELETE" style="rounded=1;whiteSpace=wrap;html=1;fillColor=#f8cecc;strokeColor=#b85450;" vertex="1" parent="1">
          <mxGeometry x="640" y="512" width="128" height="27" as="geometry" />
        </mxCell>
        <mxCell id="Fkp4l_HLPrJYwHj4Cqq2-16" value="RESOURCE:UPDATE" style="rounded=1;whiteSpace=wrap;html=1;fillColor=#dae8fc;strokeColor=#6c8ebf;" vertex="1" parent="1">
          <mxGeometry x="640" y="552" width="128" height="27" as="geometry" />
        </mxCell>
      </root>
    </mxGraphModel>
  </diagram>
</mxfile>
